<svg width="1836" height="417" viewBox="0 0 1836 417" fill="none" xmlns="http://www.w3.org/2000/svg">
<path fill-rule="evenodd" clip-rule="evenodd" d="M1428.99 416.83L1480.28 358.171L1530 416.567V139.582C1530.26 127.219 1518.68 112.752 1505.53 113.015C1505.53 113.015 1470.64 112.839 1465.55 112.752L1420.31 113.015C1408.73 113.278 1399.26 122.484 1399 136.952V222.967H1428.99V416.83ZM1414.78 206.921H1429.25C1429.25 206.921 1429.51 144.843 1429.25 136.426C1428.99 128.008 1418.28 123.622 1415.05 136.426C1415.05 136.426 1414.78 190.612 1414.78 206.921ZM1443.25 128.723C1443.55 129.206 1444.51 130.75 1444.51 134.847V375.006L1480.28 334.497L1513.95 373.428V139.319C1513.69 135.373 1510.79 129.586 1504.74 128.797C1500.56 128.251 1448.44 128.508 1443.56 128.532L1443.19 128.534C1443.13 128.534 1443.17 128.586 1443.25 128.723Z" fill="white"/>
<path d="M1391.64 112.11L1347.01 294H1284.83L1259.8 182.544L1234.26 294H1172.08L1127.97 112.11H1182.66L1203.82 236.466L1232.46 112.11H1287.93L1315.79 235.434L1336.95 112.11H1391.64ZM1619.56 295.806C1598.4 295.806 1581.03 290.818 1567.44 280.842C1553.85 270.694 1546.54 256.246 1545.51 237.498H1599.43C1599.95 243.862 1601.84 248.506 1605.11 251.43C1608.38 254.354 1612.59 255.816 1617.75 255.816C1622.39 255.816 1626.18 254.698 1629.1 252.462C1632.2 250.054 1633.75 246.786 1633.75 242.658C1633.75 237.326 1631.25 233.198 1626.26 230.274C1621.28 227.35 1613.19 224.082 1602.01 220.47C1590.14 216.514 1580.51 212.73 1573.12 209.118C1565.89 205.334 1559.53 199.916 1554.02 192.864C1548.69 185.64 1546.03 176.266 1546.03 164.742C1546.03 153.046 1548.95 143.07 1554.8 134.814C1560.65 126.386 1568.73 120.022 1579.05 115.722C1589.37 111.422 1601.07 109.272 1614.14 109.272C1635.29 109.272 1652.15 114.26 1664.71 124.236C1677.43 134.04 1684.23 147.886 1685.09 165.774H1630.13C1629.96 160.27 1628.24 156.142 1624.97 153.39C1621.88 150.638 1617.84 149.262 1612.85 149.262C1609.06 149.262 1605.97 150.38 1603.56 152.616C1601.15 154.852 1599.95 158.034 1599.95 162.162C1599.95 165.602 1601.24 168.612 1603.82 171.192C1606.57 173.6 1609.92 175.75 1613.88 177.642C1617.84 179.362 1623.68 181.598 1631.42 184.35C1642.95 188.306 1652.41 192.262 1659.8 196.218C1667.37 200.002 1673.82 205.42 1679.15 212.472C1684.66 219.352 1687.41 228.124 1687.41 238.788C1687.41 249.624 1684.66 259.342 1679.15 267.942C1673.82 276.542 1666 283.336 1655.68 288.324C1645.53 293.312 1633.49 295.806 1619.56 295.806ZM1758.91 152.616V182.286H1816.96V220.728H1758.91V253.494H1824.7V294H1708.34V112.11H1824.7V152.616H1758.91Z" fill="white"/>
<path d="M6.288 214.378C6.288 199.182 9.432 185.907 15.72 174.554C22.008 163.201 30.7413 154.467 41.92 148.354C53.2733 142.241 66.1987 139.184 80.696 139.184C99.3853 139.184 115.105 144.337 127.856 154.642C140.607 164.773 148.816 179.008 152.484 197.348H97.988C94.844 187.741 88.7307 182.938 79.648 182.938C73.1853 182.938 68.0327 185.645 64.19 191.06C60.522 196.3 58.688 204.073 58.688 214.378C58.688 224.683 60.522 232.543 64.19 237.958C68.0327 243.373 73.1853 246.08 79.648 246.08C88.9053 246.08 95.0187 241.277 97.988 231.67H152.484C148.816 249.835 140.607 264.071 127.856 274.376C115.105 284.681 99.3853 289.834 80.696 289.834C66.1987 289.834 53.2733 286.777 41.92 280.664C30.7413 274.551 22.008 265.817 15.72 254.464C9.432 243.111 6.288 229.749 6.288 214.378ZM273.115 139.708C289.883 139.708 303.157 145.385 312.939 156.738C322.895 167.917 327.873 183.113 327.873 202.326V288H276.521V209.138C276.521 200.754 274.337 194.204 269.971 189.488C265.604 184.597 259.753 182.152 252.417 182.152C244.731 182.152 238.705 184.597 234.339 189.488C229.972 194.204 227.789 200.754 227.789 209.138V288H176.437V94.12H227.789V161.978C232.33 155.341 238.443 150.013 246.129 145.996C253.989 141.804 262.984 139.708 273.115 139.708ZM350.286 214.378C350.286 199.182 352.993 185.907 358.408 174.554C363.997 163.201 371.508 154.467 380.94 148.354C390.546 142.241 401.201 139.184 412.904 139.184C423.034 139.184 431.768 141.193 439.104 145.21C446.44 149.227 452.116 154.642 456.134 161.454V141.018H507.486V288H456.134V267.564C452.116 274.376 446.352 279.791 438.842 283.808C431.506 287.825 422.86 289.834 412.904 289.834C401.201 289.834 390.546 286.777 380.94 280.664C371.508 274.551 363.997 265.817 358.408 254.464C352.993 242.936 350.286 229.574 350.286 214.378ZM456.134 214.378C456.134 204.946 453.514 197.523 448.274 192.108C443.208 186.693 436.92 183.986 429.41 183.986C421.724 183.986 415.349 186.693 410.284 192.108C405.218 197.348 402.686 204.771 402.686 214.378C402.686 223.81 405.218 231.321 410.284 236.91C415.349 242.325 421.724 245.032 429.41 245.032C436.92 245.032 443.208 242.325 448.274 236.91C453.514 231.495 456.134 223.985 456.134 214.378ZM590.72 161.454C594.737 154.642 600.414 149.227 607.75 145.21C615.086 141.193 623.732 139.184 633.688 139.184C645.391 139.184 655.958 142.241 665.39 148.354C674.997 154.467 682.507 163.201 687.922 174.554C693.511 185.907 696.306 199.182 696.306 214.378C696.306 229.574 693.511 242.936 687.922 254.464C682.507 265.817 674.997 274.551 665.39 280.664C655.958 286.777 645.391 289.834 633.688 289.834C623.732 289.834 615.086 287.825 607.75 283.808C600.589 279.791 594.912 274.376 590.72 267.564V358.216H539.368V141.018H590.72V161.454ZM644.168 214.378C644.168 204.771 641.548 197.348 636.308 192.108C631.243 186.693 624.955 183.986 617.444 183.986C609.933 183.986 603.558 186.693 598.318 192.108C593.253 197.523 590.72 204.946 590.72 214.378C590.72 223.985 593.253 231.495 598.318 236.91C603.558 242.325 609.933 245.032 617.444 245.032C624.955 245.032 631.243 242.325 636.308 236.91C641.548 231.321 644.168 223.81 644.168 214.378ZM806.788 244.246V288H784.518C746.965 288 728.188 269.398 728.188 232.194V183.724H710.11V141.018H728.188V105.386H779.802V141.018H806.526V183.724H779.802V232.98C779.802 236.997 780.675 239.879 782.422 241.626C784.343 243.373 787.487 244.246 791.854 244.246H806.788ZM973.393 212.806C973.393 216.823 973.131 220.841 972.607 224.858H875.405C875.929 232.893 878.113 238.919 881.955 242.936C885.973 246.779 891.038 248.7 897.151 248.7C905.71 248.7 911.823 244.857 915.491 237.172H970.249C967.979 247.303 963.525 256.385 956.887 264.42C950.425 272.28 942.215 278.481 932.259 283.022C922.303 287.563 911.299 289.834 899.247 289.834C884.75 289.834 871.825 286.777 860.471 280.664C849.293 274.551 840.472 265.817 834.009 254.464C827.721 243.111 824.577 229.749 824.577 214.378C824.577 199.007 827.721 185.733 834.009 174.554C840.297 163.201 849.031 154.467 860.209 148.354C871.563 142.241 884.575 139.184 899.247 139.184C913.745 139.184 926.583 142.153 937.761 148.092C948.94 154.031 957.673 162.589 963.961 173.768C970.249 184.772 973.393 197.785 973.393 212.806ZM920.993 199.968C920.993 193.68 918.897 188.789 914.705 185.296C910.513 181.628 905.273 179.794 898.985 179.794C892.697 179.794 887.545 181.541 883.527 185.034C879.51 188.353 876.89 193.331 875.667 199.968H920.993ZM1048.38 166.956C1054.14 158.572 1061.13 151.935 1069.34 147.044C1077.55 142.153 1086.37 139.708 1095.8 139.708V194.466H1081.39C1070.21 194.466 1061.92 196.649 1056.5 201.016C1051.09 205.383 1048.38 212.981 1048.38 223.81V288H997.029V141.018H1048.38V166.956Z" fill="white"/>
</svg>
