<svg width="37" height="37" viewBox="0 0 37 37" fill="none" xmlns="http://www.w3.org/2000/svg">
<path d="M18.5 37C15.9466 37 13.5498 36.5182 11.3096 35.5547C9.04525 34.5911 7.07601 33.2723 5.40186 31.5981C3.7277 29.924 2.40885 27.9548 1.44531 25.6904C0.481771 23.4502 0 21.0534 0 18.5C0 15.9466 0.481771 13.5498 1.44531 11.3096C2.40885 9.04525 3.7277 7.07601 5.40186 5.40186C7.07601 3.7277 9.04525 2.40886 11.3096 1.44531C13.5498 0.48177 15.9466 0 18.5 0C21.0534 0 23.4502 0.48177 25.6904 1.44531C27.9548 2.40886 29.924 3.7277 31.5981 5.40186C33.2723 7.07601 34.5911 9.04525 35.5547 11.3096C36.5182 13.5498 37 15.9466 37 18.5C37 21.0534 36.5182 23.4502 35.5547 25.6904C34.5671 27.9307 33.2362 29.8879 31.562 31.562C29.8879 33.2362 27.9307 34.5671 25.6904 35.5547C23.4502 36.5182 21.0534 37 18.5 37ZM18.5 2.38477C16.2839 2.38477 14.2002 2.80632 12.249 3.64941C10.2738 4.49251 8.55745 5.64274 7.1001 7.1001C5.64274 8.55746 4.49251 10.2738 3.64941 12.249C2.80632 14.2002 2.38477 16.2839 2.38477 18.5C2.38477 20.7161 2.80632 22.7998 3.64941 24.751C4.49251 26.7262 5.64274 28.4425 7.1001 29.8999C8.55745 31.3573 10.2738 32.5075 12.249 33.3506C14.2002 34.1937 16.2839 34.6152 18.5 34.6152C20.7161 34.6152 22.7998 34.1937 24.751 33.3506C26.7262 32.5075 28.4425 31.3573 29.8999 29.8999C31.3573 28.4425 32.5075 26.7262 33.3506 24.751C34.1937 22.7998 34.6152 20.7161 34.6152 18.5C34.5911 16.2839 34.1576 14.2002 33.3145 12.249C32.4714 10.2979 31.3211 8.59359 29.8638 7.13623C28.4064 5.67887 26.7021 4.52864 24.751 3.68555C22.7998 2.84245 20.7161 2.40886 18.5 2.38477ZM24.1006 27.2803C24.1006 27.6416 23.9741 27.9487 23.7212 28.2017C23.4683 28.4546 23.1732 28.5811 22.8359 28.5811H14.2002C13.863 28.5811 13.5679 28.4546 13.3149 28.2017C13.062 27.9487 12.9355 27.6416 12.9355 27.2803C12.9355 26.943 13.062 26.6479 13.3149 26.395C13.5679 26.1421 13.863 26.0156 14.2002 26.0156H17.416V17.5605H14.8506C14.4893 17.5605 14.1882 17.4341 13.9473 17.1812C13.7064 16.9282 13.5859 16.6211 13.5859 16.2598C13.5859 15.9225 13.7064 15.6274 13.9473 15.3745C14.1882 15.1216 14.4893 14.9951 14.8506 14.9951H18.7168C18.7891 14.9951 18.8673 15.0011 18.9517 15.0132C19.036 15.0252 19.1143 15.0433 19.1865 15.0674H19.2227L19.4033 15.1758C19.5238 15.248 19.6261 15.3444 19.7104 15.4648C19.7948 15.5853 19.861 15.7178 19.9092 15.8623C19.9333 15.9105 19.9513 15.9647 19.9634 16.0249C19.9754 16.0851 19.9814 16.1514 19.9814 16.2236V26.0518H22.7998C22.7998 26.0518 22.8118 26.0518 22.8359 26.0518C23.1732 26.0518 23.4683 26.1722 23.7212 26.4131C23.9741 26.654 24.1006 26.943 24.1006 27.2803ZM19.9814 16.4043V16.2598C19.9814 16.2598 19.9814 16.2718 19.9814 16.2959V16.2598C19.9814 16.2839 19.9814 16.2959 19.9814 16.2959C19.9814 16.32 19.9814 16.3381 19.9814 16.3501C19.9814 16.3621 19.9814 16.3802 19.9814 16.4043ZM18.6807 14.9951C18.777 14.9951 18.8673 15.0011 18.9517 15.0132C18.8673 15.0011 18.7891 14.9951 18.7168 14.9951H18.6807ZM20.4512 10.334C20.4512 10.888 20.2585 11.3517 19.873 11.7251C19.4876 12.0985 19.0299 12.2852 18.5 12.2852C17.9701 12.2852 17.5124 12.0985 17.127 11.7251C16.7415 11.3517 16.5488 10.888 16.5488 10.334C16.5488 9.80404 16.7415 9.34635 17.127 8.96094C17.5124 8.57552 17.9701 8.38281 18.5 8.38281C19.0299 8.38281 19.4876 8.57552 19.873 8.96094C20.2585 9.34635 20.4512 9.80404 20.4512 10.334Z" fill="white"/>
</svg>
