<svg width="37" height="37" viewBox="0 0 37 37" fill="none" xmlns="http://www.w3.org/2000/svg">
<path d="M12.9717 34.7236C12.9235 34.6755 12.8753 34.6152 12.8271 34.543C12.779 34.4707 12.7428 34.4105 12.7188 34.3623C12.6947 34.29 12.6766 34.2178 12.6646 34.1455C12.6525 34.0732 12.6465 34.001 12.6465 33.9287C12.6465 33.9287 12.6465 33.5915 12.6465 32.917C12.6465 32.2425 12.6706 31.5078 12.7188 30.7129C12.7188 30.3516 12.7248 29.9963 12.7368 29.647C12.7489 29.2977 12.7669 28.9785 12.791 28.6895C12.2611 28.4967 11.7673 28.2498 11.3096 27.9487C10.8519 27.6476 10.4424 27.3044 10.0811 26.9189C9.67155 26.5335 9.32227 26.112 9.0332 25.6543C8.74414 25.1966 8.50326 24.7148 8.31055 24.209L6.28711 24.2812L3.10742 24.3535C3.03516 24.3535 2.96289 24.3475 2.89062 24.3354C2.81836 24.3234 2.74609 24.3053 2.67383 24.2812C2.60156 24.2331 2.53532 24.1909 2.4751 24.1548C2.41488 24.1187 2.36068 24.0765 2.3125 24.0283C2.24023 23.9801 2.18604 23.9199 2.1499 23.8477C2.11377 23.7754 2.08366 23.7031 2.05957 23.6309C2.03548 23.5827 2.01742 23.5164 2.00537 23.4321C1.99333 23.3478 1.9873 23.2695 1.9873 23.1973C2.03548 21.4147 2.35465 19.7887 2.94482 18.3193C3.53499 16.8499 4.36003 15.6576 5.41992 14.7422C6.28711 13.9954 7.2627 13.4474 8.34668 13.0981C9.43066 12.7489 10.5387 12.6104 11.6709 12.6826C12.6585 11.3096 14.0195 9.91244 15.7539 8.49121C17.4883 7.06999 19.3853 5.8234 21.4448 4.75146C23.5044 3.67953 25.6182 2.89062 27.7861 2.38477C29.9782 1.85482 32.0016 1.81868 33.8564 2.27637C33.9528 2.30046 34.0492 2.33659 34.1455 2.38477C34.2419 2.43294 34.3262 2.49316 34.3984 2.56543L34.4346 2.60156C34.5068 2.67383 34.5671 2.75814 34.6152 2.85449C34.6634 2.95085 34.6995 3.0472 34.7236 3.14355C35.1813 4.99837 35.1452 7.02181 34.6152 9.21387C34.1094 11.3818 33.3205 13.4956 32.2485 15.5552C31.1766 17.6147 29.93 19.5117 28.5088 21.2461C27.0635 22.9805 25.6543 24.3294 24.2812 25.293C24.3776 26.4492 24.2511 27.5693 23.9019 28.6533C23.5526 29.7373 23.0046 30.7129 22.2578 31.5801C21.3184 32.64 20.12 33.465 18.6626 34.0552C17.2052 34.6453 15.5853 34.9645 13.8027 35.0127C13.7064 35.0127 13.6221 35.0067 13.5498 34.9946C13.4775 34.9826 13.4053 34.9645 13.333 34.9404C13.2848 34.9163 13.2246 34.8802 13.1523 34.832C13.0801 34.7839 13.0199 34.7357 12.9717 34.6875V34.7236ZM32.7002 4.33594C31.0381 4.07096 29.2314 4.21549 27.2803 4.76953C25.3532 5.34766 23.4743 6.1486 21.6436 7.17236C19.8128 8.19613 18.1387 9.3584 16.6211 10.6592C15.1035 11.96 13.9593 13.2246 13.1885 14.4531C13.1162 14.5495 13.0439 14.6338 12.9717 14.7061C12.8994 14.7783 12.8151 14.8385 12.7188 14.8867C12.6224 14.9349 12.526 14.965 12.4297 14.9771C12.3333 14.9891 12.2249 14.9951 12.1045 14.9951C11.6468 14.9229 11.1831 14.8988 10.7134 14.9229C10.2437 14.9469 9.79199 15.0192 9.3584 15.1396C8.90072 15.2601 8.4611 15.4287 8.03955 15.6455C7.618 15.8623 7.22656 16.1152 6.86523 16.4043C6.0944 17.1751 5.48617 18.0544 5.04053 19.042C4.59489 20.0296 4.33594 21.0534 4.26367 22.1133C5.37174 22.0892 6.38949 22.0651 7.31689 22.041C8.2443 22.0169 8.84049 21.9808 9.10547 21.9326C9.20182 21.9085 9.29818 21.8965 9.39453 21.8965C9.49089 21.8965 9.58724 21.9085 9.68359 21.9326C9.80404 21.9808 9.91846 22.035 10.0269 22.0952C10.1353 22.1554 10.2256 22.2337 10.2979 22.3301C10.3701 22.4264 10.4303 22.5348 10.4785 22.6553C10.5267 22.7757 10.5508 22.8962 10.5508 23.0166C10.5508 23.113 10.5387 23.2033 10.5146 23.2876C10.4906 23.3719 10.4665 23.4622 10.4424 23.5586C10.5387 23.9199 10.6893 24.2572 10.894 24.5703C11.0988 24.8835 11.3457 25.1605 11.6348 25.4014C11.8757 25.6663 12.1527 25.9012 12.4658 26.106C12.779 26.3107 13.1162 26.4733 13.4775 26.5938C13.5498 26.5697 13.6281 26.5456 13.7124 26.5215C13.7967 26.4974 13.887 26.4854 13.9834 26.4854C14.1038 26.4854 14.2243 26.5034 14.3447 26.5396C14.4652 26.5757 14.5736 26.6419 14.6699 26.7383C14.7663 26.8105 14.8506 26.8949 14.9229 26.9912C14.9951 27.0876 15.0433 27.196 15.0674 27.3164C15.0915 27.4128 15.1035 27.5151 15.1035 27.6235C15.1035 27.7319 15.0915 27.8343 15.0674 27.9307C15.0433 28.1715 15.0132 28.7617 14.9771 29.7012C14.9409 30.6406 14.9108 31.6644 14.8867 32.7725C15.9707 32.7002 17.0065 32.4352 17.9941 31.9775C18.9818 31.5199 19.849 30.9056 20.5957 30.1348C20.9089 29.7734 21.1738 29.388 21.3906 28.9785C21.6074 28.569 21.776 28.1354 21.8965 27.6777C22.0169 27.2441 22.0892 26.7925 22.1133 26.3228C22.1374 25.853 22.1133 25.3773 22.041 24.8955C22.041 24.7992 22.047 24.7028 22.0591 24.6064C22.0711 24.5101 22.1012 24.4137 22.1494 24.3174C22.1976 24.221 22.2518 24.1367 22.312 24.0645C22.3722 23.9922 22.4505 23.932 22.5469 23.8838C23.7754 23.0889 25.04 21.9326 26.3408 20.415C27.6416 18.8975 28.8099 17.2233 29.8457 15.3926C30.8815 13.5618 31.6764 11.6709 32.2305 9.71973C32.8086 7.76855 32.9652 5.97396 32.7002 4.33594ZM8.49121 22.4385C8.46712 22.4626 8.44906 22.4806 8.43701 22.4927C8.42497 22.5047 8.41895 22.5228 8.41895 22.5469V22.4746C8.41895 22.4746 8.42497 22.4686 8.43701 22.4565C8.44906 22.4445 8.46712 22.4385 8.49121 22.4385ZM2.81836 34.3262C2.72201 34.2298 2.64372 34.1154 2.5835 33.9829C2.52327 33.8504 2.49316 33.7119 2.49316 33.5674C2.49316 33.3988 2.51725 32.929 2.56543 32.1582C2.58952 31.4115 2.72201 30.5744 2.96289 29.647C3.20378 28.7196 3.57715 27.8223 4.08301 26.9551C4.61296 26.0879 5.34766 25.4616 6.28711 25.0762C6.43164 25.028 6.57015 25.0099 6.70264 25.022C6.83512 25.034 6.97363 25.0641 7.11816 25.1123C7.23861 25.1605 7.34701 25.2388 7.44336 25.3472C7.53971 25.4556 7.61198 25.57 7.66016 25.6904C7.70833 25.8109 7.73844 25.9434 7.75049 26.0879C7.76253 26.2324 7.74447 26.3649 7.69629 26.4854C7.64811 26.6299 7.57585 26.7563 7.47949 26.8647C7.38314 26.9731 7.27474 27.0514 7.1543 27.0996C6.35938 27.4368 5.78727 28.1715 5.43799 29.3037C5.0887 30.4359 4.86589 31.4596 4.76953 32.375C5.63672 32.2786 6.60628 32.0438 7.67822 31.6704C8.75016 31.297 9.50293 30.6768 9.93652 29.8096C9.96061 29.7614 9.99675 29.7012 10.0449 29.6289C10.0931 29.5566 10.1413 29.4964 10.1895 29.4482C10.2376 29.4001 10.2979 29.3579 10.3701 29.3218C10.4424 29.2856 10.5146 29.2555 10.5869 29.2314C10.6351 29.2074 10.7013 29.1893 10.7856 29.1772C10.87 29.1652 10.9482 29.1592 11.0205 29.1592C11.0928 29.1592 11.165 29.1712 11.2373 29.1953C11.3096 29.2194 11.3818 29.2435 11.4541 29.2676C11.5264 29.3158 11.5926 29.3579 11.6528 29.394C11.7131 29.4302 11.7673 29.4844 11.8154 29.5566C11.8636 29.6048 11.9058 29.665 11.9419 29.7373C11.978 29.8096 12.0081 29.8818 12.0322 29.9541C12.0322 30.0264 12.0382 30.0986 12.0503 30.1709C12.0623 30.2432 12.0684 30.3154 12.0684 30.3877C12.0443 30.46 12.0202 30.5322 11.9961 30.6045C11.972 30.6768 11.9479 30.749 11.9238 30.8213C11.4421 31.7848 10.7435 32.5316 9.82812 33.0615C8.93685 33.5674 8.03955 33.9408 7.13623 34.1816C6.23291 34.4225 5.43197 34.555 4.7334 34.5791C4.05892 34.6273 3.68555 34.6393 3.61328 34.6152C3.54102 34.6152 3.46875 34.6152 3.39648 34.6152C3.32422 34.6152 3.25195 34.6032 3.17969 34.5791C3.10742 34.555 3.04118 34.5189 2.98096 34.4707C2.92074 34.4225 2.86654 34.3743 2.81836 34.3262ZM27.0996 13.4414C26.9792 13.2246 26.8226 13.0379 26.6299 12.8813C26.4372 12.7248 26.2324 12.5983 26.0156 12.502C25.7747 12.4297 25.5339 12.3875 25.293 12.3755C25.0521 12.3634 24.8112 12.3815 24.5703 12.4297C24.6426 12.2129 24.6667 11.978 24.6426 11.7251C24.6185 11.4722 24.5703 11.2373 24.498 11.0205C24.4017 10.8037 24.2752 10.599 24.1187 10.4062C23.9621 10.2135 23.7874 10.0449 23.5947 9.90039C23.3057 9.75586 22.8901 9.66553 22.3481 9.62939C21.8062 9.59326 21.234 9.91244 20.6318 10.5869C20.0055 11.2614 19.6562 12.1406 19.584 13.2246C19.5117 14.3086 19.6562 15.5492 20.0176 16.9463C21.4147 17.3317 22.6673 17.4883 23.7754 17.416C24.8835 17.3438 25.7747 17.0065 26.4492 16.4043C27.1237 15.778 27.4609 15.2179 27.4609 14.7241C27.4609 14.2303 27.3405 13.8027 27.0996 13.4414Z" fill="white"/>
</svg>
