<svg width="38" height="37" viewBox="0 0 38 37" fill="none" xmlns="http://www.w3.org/2000/svg">
<path d="M35.1309 10.0449C35.1068 9.92448 35.0706 9.81006 35.0225 9.70166C34.9743 9.59326 34.902 9.50293 34.8057 9.43066L34.7695 9.3584L34.625 9.25H34.5889L34.4805 9.21387L19.4854 0.216797C19.4372 0.192707 19.389 0.174641 19.3408 0.162598C19.2926 0.150555 19.2445 0.132488 19.1963 0.108398C19.124 0.0843086 19.0457 0.0602226 18.9614 0.0361328C18.8771 0.012043 18.7868 0 18.6904 0C18.5941 0 18.4917 0.012043 18.3833 0.0361328C18.2749 0.0602226 18.1846 0.108398 18.1123 0.180664V0.144531L2.82812 9.06934C2.68359 9.16569 2.56315 9.28011 2.4668 9.4126C2.37044 9.54508 2.29818 9.69564 2.25 9.86426C2.25 9.91244 2.24398 9.96663 2.23193 10.0269C2.21989 10.0871 2.21387 10.1533 2.21387 10.2256V26.7021C2.21387 26.7021 2.21387 26.7082 2.21387 26.7202C2.21387 26.7323 2.21387 26.7383 2.21387 26.7383C2.21387 26.7865 2.21387 26.8286 2.21387 26.8647C2.21387 26.9009 2.22591 26.943 2.25 26.9912V26.9551C2.25 26.9551 2.25 26.9671 2.25 26.9912C2.25 27.0153 2.25 27.0273 2.25 27.0273C2.27409 27.2201 2.33431 27.3826 2.43066 27.5151C2.52702 27.6476 2.64746 27.75 2.79199 27.8223V27.8584L17.9316 36.8193C18.028 36.8916 18.1304 36.9398 18.2388 36.9639C18.3472 36.988 18.4495 37 18.5459 37H18.7266C18.8229 37 18.9132 36.988 18.9976 36.9639C19.0819 36.9398 19.1722 36.9036 19.2686 36.8555L34.5527 27.9307C34.6009 27.8825 34.6431 27.8464 34.6792 27.8223C34.7153 27.7982 34.7575 27.762 34.8057 27.7139C34.9261 27.6175 35.0164 27.4971 35.0767 27.3525C35.1369 27.208 35.167 27.0514 35.167 26.8828V10.2256C35.167 10.2015 35.167 10.1714 35.167 10.1353C35.167 10.0991 35.1549 10.069 35.1309 10.0449ZM17.4258 33.7119L4.59863 26.0879V21.0293L17.4258 28.4004V33.7119ZM17.4258 25.6182L4.59863 18.2471V12.4297L17.4258 20.0537V25.6182ZM18.5459 17.9219L5.61035 10.2256L18.6904 2.56543L31.6621 10.2979L18.5459 17.9219ZM32.7822 26.1602L19.8105 33.7119V19.9814L32.7822 12.4297V26.1602Z" fill="white"/>
</svg>
