<svg width="38" height="37" viewBox="0 0 38 37" fill="none" xmlns="http://www.w3.org/2000/svg">
<path d="M12.8783 35.7354C11.9389 35.7354 11.0837 35.6149 10.3129 35.374C9.54206 35.1331 8.84349 34.7718 8.21719 34.29C7.87995 34.0251 7.57884 33.73 7.31387 33.4048C7.04889 33.0796 6.82005 32.7243 6.62734 32.3389C6.43464 31.9535 6.2901 31.55 6.19375 31.1284C6.0974 30.7069 6.06126 30.2793 6.08535 29.8457V13.4053C6.06126 13.0199 6.0974 12.6284 6.19375 12.231C6.2901 11.8335 6.43464 11.4541 6.62734 11.0928C6.82005 10.7314 7.04889 10.4002 7.31387 10.0991C7.57884 9.79801 7.87995 9.52702 8.21719 9.28613C8.77122 8.90072 9.42764 8.61768 10.1864 8.43701C10.9452 8.25635 11.8425 8.16602 12.8783 8.16602V9.86426C12.0352 9.86426 11.3126 9.9305 10.7104 10.063C10.1081 10.1955 9.60228 10.4062 9.19277 10.6953C8.97598 10.8398 8.77725 11.0145 8.59658 11.2192C8.41592 11.424 8.26536 11.6468 8.14492 11.8877C8.02448 12.1286 7.93415 12.3755 7.87393 12.6284C7.8137 12.8813 7.78359 13.1403 7.78359 13.4053V29.8457C7.78359 30.1589 7.8137 30.46 7.87393 30.749C7.93415 31.0381 8.02448 31.3151 8.14492 31.5801C8.26536 31.8451 8.42194 32.092 8.61465 32.3208C8.80736 32.5496 9.02415 32.7604 9.26504 32.9531C9.72272 33.3145 10.2466 33.5854 10.8368 33.7661C11.427 33.9468 12.1075 34.0371 12.8783 34.0371V35.7354ZM10.7465 9.39453H9.04824C9.04824 9.39453 9.04824 8.71403 9.04824 7.35303C9.04824 5.99203 9.04824 4.98633 9.04824 4.33594C9.04824 3.97461 9.13857 3.55908 9.31924 3.08936C9.4999 2.61963 9.81908 2.24023 10.2768 1.95117C10.7344 1.63802 11.1801 1.44531 11.6137 1.37305C12.0473 1.30078 12.4688 1.26465 12.8783 1.26465V2.96289C12.517 2.96289 12.2159 2.98698 11.975 3.03516C11.7341 3.08333 11.4812 3.19173 11.2162 3.36035C11.0476 3.48079 10.9271 3.64339 10.8549 3.84814C10.7826 4.0529 10.7465 4.21549 10.7465 4.33594C10.7465 5.01042 10.7465 6.02213 10.7465 7.37109C10.7465 8.72005 10.7465 9.39453 10.7465 9.39453ZM12.8783 35.7354V34.0371C13.6492 34.0371 14.3297 33.9468 14.9198 33.7661C15.51 33.5854 16.046 33.3145 16.5277 32.9531C16.7445 32.7604 16.9493 32.5496 17.142 32.3208C17.3347 32.092 17.4913 31.8451 17.6117 31.5801C17.7563 31.3151 17.8586 31.0381 17.9188 30.749C17.9791 30.46 18.0092 30.1589 18.0092 29.8457V13.4053C18.0092 13.1403 17.9791 12.8813 17.9188 12.6284C17.8586 12.3755 17.7683 12.1286 17.6479 11.8877C17.5274 11.6468 17.3769 11.424 17.1962 11.2192C17.0155 11.0145 16.8168 10.8398 16.6 10.6953C16.1905 10.4062 15.6846 10.1955 15.0824 10.063C14.4802 9.9305 13.7455 9.86426 12.8783 9.86426V8.16602C13.9141 8.16602 14.8174 8.25635 15.5883 8.43701C16.3591 8.61768 17.0216 8.90072 17.5756 9.28613C17.9128 9.52702 18.2139 9.79801 18.4789 10.0991C18.7439 10.4002 18.9727 10.7314 19.1654 11.0928C19.3341 11.4541 19.4665 11.8335 19.5629 12.231C19.6592 12.6284 19.7074 13.0199 19.7074 13.4053V29.8457C19.7074 30.2793 19.6592 30.7069 19.5629 31.1284C19.4665 31.55 19.3341 31.9535 19.1654 32.3389C18.9727 32.7243 18.7439 33.0796 18.4789 33.4048C18.2139 33.73 17.9128 34.0251 17.5756 34.29C16.9493 34.7718 16.2507 35.1331 15.4799 35.374C14.7091 35.6149 13.8419 35.7354 12.8783 35.7354ZM15.0102 9.39453C15.0102 9.39453 15.0102 8.72005 15.0102 7.37109C15.0102 6.02213 15.0102 5.01042 15.0102 4.33594C15.0102 4.21549 14.974 4.0529 14.9018 3.84814C14.8295 3.64339 14.709 3.48079 14.5404 3.36035C14.2995 3.19173 14.0526 3.08333 13.7997 3.03516C13.5468 2.98698 13.2396 2.96289 12.8783 2.96289V1.26465C13.2878 1.26465 13.7094 1.30078 14.143 1.37305C14.5766 1.44531 15.0222 1.63802 15.4799 1.95117C15.9376 2.24023 16.2567 2.61963 16.4374 3.08936C16.6181 3.55908 16.7084 3.97461 16.7084 4.33594C16.7084 4.98633 16.7084 5.99203 16.7084 7.35303C16.7084 8.71403 16.7084 9.39453 16.7084 9.39453H15.0102ZM18.9486 16.1152C17.3106 16.0189 15.7689 15.9587 14.3236 15.9346C12.9024 15.9346 11.6679 15.9466 10.62 15.9707C9.57217 15.9948 8.74714 16.0189 8.14492 16.043C7.54271 16.0911 7.22956 16.1152 7.20547 16.1152L7.06094 14.417C7.08503 14.417 7.39818 14.3929 8.00039 14.3447C8.62669 14.3206 9.47581 14.2905 10.5478 14.2544C11.6197 14.2183 12.8904 14.2122 14.3598 14.2363C15.8051 14.2604 17.3708 14.3206 19.057 14.417L18.9486 16.1152ZM9.6625 18.6445H8.68691V17.9941H11.3607V18.6445H10.3852V21.3545H9.6625V18.6445ZM14.3236 21.3545H13.5648L12.9506 20.1621H12.517V21.3545H11.7943V17.9941H13.1674C13.5287 17.9941 13.8057 18.0905 13.9984 18.2832C14.1911 18.4759 14.2875 18.7409 14.2875 19.0781C14.2875 19.319 14.2333 19.5238 14.1249 19.6924C14.0165 19.861 13.8539 19.9935 13.6371 20.0898L14.3236 21.3545ZM13.059 19.5117C13.2517 19.5117 13.3902 19.4756 13.4745 19.4033C13.5588 19.3311 13.601 19.2227 13.601 19.0781C13.601 18.9336 13.5588 18.8252 13.4745 18.7529C13.3902 18.6807 13.2517 18.6445 13.059 18.6445H12.517V19.5117H13.059ZM15.3715 19.9814L14.2514 17.9941H15.0102L15.7328 19.3672L16.4555 17.9941H17.2143L16.0941 19.9814V21.3545H15.4076L15.3715 19.9814ZM9.80703 22.4746H10.602L11.5414 24.7148L12.4809 22.4746H13.2758V25.7988H12.5893V23.7393H12.5531L11.6859 25.7988H11.3969L10.5297 23.7393H10.4936V25.7988H9.80703V22.4746ZM13.9262 22.4746H16.0941V23.125H14.6488V23.8115H15.9496V24.4258H14.6488V25.1484H16.0941V25.835H13.9262V22.4746ZM10.1322 29.8096C9.62637 29.8096 9.12051 29.7975 8.61465 29.7734C8.10879 29.7493 7.60293 29.7253 7.09707 29.7012L7.20547 28.1836C8.93984 28.304 10.6983 28.304 12.4809 28.1836C14.2634 28.0632 16.3109 27.4128 18.6234 26.2324L19.31 27.5332C17.5033 28.4727 15.8593 29.0869 14.3778 29.376C12.8964 29.665 11.4812 29.8096 10.1322 29.8096ZM28.4154 34.3623C28.1505 34.3623 27.8915 34.3503 27.6386 34.3262C27.3856 34.3021 27.1387 34.266 26.8979 34.2178C26.4161 34.0973 25.9162 33.8805 25.3983 33.5674C24.8804 33.2542 24.489 32.8206 24.224 32.2666C24.1277 32.1221 24.0614 31.9655 24.0253 31.7969C23.9892 31.6283 23.959 31.4476 23.935 31.2549C23.935 31.0863 23.953 30.9176 23.9892 30.749C24.0253 30.5804 24.0795 30.4118 24.1518 30.2432C24.224 30.0264 24.3324 29.8216 24.477 29.6289C24.6215 29.4362 24.7901 29.2676 24.9828 29.123C25.1755 28.9785 25.3863 28.8641 25.6151 28.7798C25.844 28.6955 26.0788 28.6413 26.3197 28.6172C26.392 28.4004 26.4883 28.1896 26.6088 27.9849C26.7292 27.7801 26.8738 27.5934 27.0424 27.4248C27.211 27.2562 27.4037 27.1177 27.6205 27.0093C27.8373 26.9009 28.0661 26.8346 28.307 26.8105C28.4757 26.7624 28.6503 26.7383 28.831 26.7383C29.0116 26.7383 29.1863 26.7624 29.3549 26.8105C29.5235 26.8346 29.6861 26.8888 29.8427 26.9731C29.9993 27.0575 30.1498 27.1478 30.2943 27.2441C30.7761 27.6296 31.1194 28.1053 31.3241 28.6714C31.5289 29.2375 31.6433 29.7614 31.6674 30.2432C31.7156 31.0863 31.6132 31.8691 31.3603 32.5918C31.1073 33.3145 30.9688 33.6999 30.9447 33.748C30.9206 33.7962 30.8905 33.8384 30.8544 33.8745C30.8183 33.9106 30.7882 33.9528 30.7641 34.001C30.7159 34.0251 30.6677 34.0492 30.6195 34.0732C30.5714 34.0973 30.5111 34.1214 30.4389 34.1455C30.1257 34.2178 29.7945 34.272 29.4452 34.3081C29.0959 34.3442 28.7527 34.3623 28.4154 34.3623ZM26.5365 30.0986C26.4161 30.0986 26.3017 30.1167 26.1933 30.1528C26.0849 30.189 25.9945 30.2432 25.9223 30.3154C25.8259 30.3636 25.7416 30.4299 25.6693 30.5142C25.5971 30.5985 25.5489 30.7008 25.5248 30.8213C25.4766 30.8695 25.4465 30.9297 25.4345 31.002C25.4224 31.0742 25.4164 31.1465 25.4164 31.2188C25.4164 31.291 25.4285 31.3573 25.4525 31.4175C25.4766 31.4777 25.5007 31.5439 25.5248 31.6162C25.6693 31.8571 25.8982 32.0859 26.2113 32.3027C26.5245 32.5195 26.8738 32.6761 27.2592 32.7725C27.6687 32.8688 28.1083 32.9049 28.578 32.8809C29.0478 32.8568 29.4271 32.8206 29.7162 32.7725C29.8126 32.5075 29.921 32.1522 30.0414 31.7065C30.1618 31.2609 30.21 30.7972 30.1859 30.3154C30.1618 29.93 30.0775 29.5627 29.933 29.2134C29.7885 28.8641 29.6078 28.6051 29.391 28.4365C29.3188 28.3883 29.2525 28.3522 29.1923 28.3281C29.1321 28.304 29.0779 28.2799 29.0297 28.2559C28.9574 28.2318 28.8852 28.2197 28.8129 28.2197C28.7406 28.2197 28.6684 28.2318 28.5961 28.2559C28.2348 28.3281 27.9939 28.4907 27.8734 28.7437C27.753 28.9966 27.7048 29.1833 27.7289 29.3037C27.7289 29.376 27.7289 29.4422 27.7289 29.5024C27.7289 29.5627 27.7169 29.6289 27.6928 29.7012C27.6687 29.7493 27.6386 29.8035 27.6024 29.8638C27.5663 29.924 27.5121 29.9782 27.4398 30.0264C27.3917 30.0505 27.3375 30.0806 27.2772 30.1167C27.217 30.1528 27.1628 30.1709 27.1146 30.1709C27.0424 30.195 26.9761 30.201 26.9159 30.189C26.8557 30.1769 26.7895 30.1589 26.7172 30.1348C26.6931 30.1348 26.663 30.1287 26.6269 30.1167C26.5907 30.1047 26.5606 30.0986 26.5365 30.0986ZM23.3207 11.0566C23.2725 11.0566 23.2243 11.0506 23.1762 11.0386C23.128 11.0265 23.0678 11.0085 22.9955 10.9844C22.9473 10.9603 22.9052 10.9302 22.869 10.894C22.8329 10.8579 22.7908 10.8278 22.7426 10.8037C22.7185 10.7555 22.4776 10.3822 22.0199 9.68359C21.5622 8.98503 21.237 8.1901 21.0443 7.29883C20.948 6.76888 20.9359 6.17269 21.0082 5.51025C21.0805 4.84782 21.3214 4.26367 21.7309 3.75781C21.8272 3.61328 21.9477 3.48079 22.0922 3.36035C22.2367 3.23991 22.3933 3.13151 22.5619 3.03516C22.7305 2.96289 22.9112 2.90267 23.1039 2.85449C23.2966 2.80632 23.4893 2.78223 23.682 2.78223C23.9229 2.75814 24.1758 2.7762 24.4408 2.83643C24.7058 2.89665 24.9467 2.98698 25.1635 3.10742C25.4044 3.25195 25.6151 3.41455 25.7958 3.59521C25.9765 3.77588 26.127 3.98665 26.2475 4.22754C26.5124 4.17936 26.7714 4.16732 27.0243 4.19141C27.2772 4.21549 27.5242 4.27572 27.765 4.37207C28.0059 4.46842 28.2348 4.59489 28.4516 4.75146C28.6684 4.90804 28.849 5.09473 28.9936 5.31152C29.114 5.45605 29.2104 5.61263 29.2826 5.78125C29.3549 5.94987 29.4151 6.13053 29.4633 6.32324C29.4874 6.51595 29.4994 6.70866 29.4994 6.90137C29.4994 7.09408 29.4753 7.27474 29.4271 7.44336C29.2826 8.09375 28.9815 8.65381 28.5238 9.12354C28.0661 9.59326 27.5964 9.94857 27.1146 10.1895C26.3197 10.623 25.5007 10.876 24.6576 10.9482C23.8145 11.0205 23.3689 11.0566 23.3207 11.0566ZM23.7904 4.26367H23.7182C23.6459 4.26367 23.5676 4.27572 23.4833 4.2998C23.399 4.32389 23.3207 4.34798 23.2484 4.37207C23.1762 4.42025 23.1099 4.46842 23.0497 4.5166C22.9895 4.56478 22.9353 4.625 22.8871 4.69727C22.6944 4.93815 22.5619 5.26937 22.4896 5.69092C22.4174 6.11247 22.4294 6.55208 22.5258 7.00977C22.6221 7.51562 22.7968 8.00342 23.0497 8.47314C23.3026 8.94287 23.5134 9.31022 23.682 9.5752C23.9952 9.55111 24.4167 9.49088 24.9467 9.39453C25.4766 9.29818 25.9704 9.11751 26.4281 8.85254C26.8376 8.65983 27.1809 8.40088 27.4579 8.07568C27.7349 7.75049 27.9096 7.43131 27.9818 7.11816C28.0059 7.0459 28.018 6.96761 28.018 6.8833C28.018 6.79899 28.0059 6.7207 27.9818 6.64844C27.9818 6.55208 27.9638 6.46777 27.9276 6.39551C27.8915 6.32324 27.8493 6.26302 27.8012 6.21484C27.5362 5.85352 27.2351 5.67285 26.8979 5.67285C26.5606 5.67285 26.3318 5.70898 26.2113 5.78125C26.1632 5.82943 26.109 5.86556 26.0487 5.88965C25.9885 5.91374 25.9223 5.92578 25.85 5.92578C25.7777 5.92578 25.7115 5.91976 25.6513 5.90771C25.591 5.89567 25.5248 5.8776 25.4525 5.85352C25.4044 5.82943 25.3562 5.79329 25.308 5.74512C25.2598 5.69694 25.2117 5.64876 25.1635 5.60059C25.1394 5.55241 25.1153 5.49821 25.0912 5.43799C25.0671 5.37777 25.0551 5.31152 25.0551 5.23926C25.031 5.09473 24.9166 4.896 24.7118 4.64307C24.5071 4.39014 24.1999 4.26367 23.7904 4.26367ZM25.4887 22.4385C25.4164 22.4385 25.3441 22.4264 25.2719 22.4023C25.1996 22.3783 25.1273 22.3542 25.0551 22.3301C24.9828 22.2819 24.9226 22.2277 24.8744 22.1675C24.8262 22.1073 24.7781 22.041 24.7299 21.9688C24.7058 21.8965 24.6877 21.8242 24.6757 21.752C24.6636 21.6797 24.6576 21.5954 24.6576 21.499C24.6576 21.4268 24.6697 21.3545 24.6938 21.2822C24.7178 21.21 24.754 21.1377 24.8021 21.0654C25.2117 20.5355 25.7115 20.138 26.3017 19.873C26.8918 19.6081 27.6446 19.4395 28.56 19.3672C29.1622 19.319 29.656 19.1504 30.0414 18.8613C30.4268 18.5723 30.6798 18.1748 30.8002 17.6689C30.9206 17.139 30.8183 16.6392 30.4931 16.1694C30.1679 15.6997 29.7042 15.3926 29.102 15.248C28.4757 15.1035 27.9577 15.224 27.5482 15.6094C27.1387 15.9948 26.934 16.1995 26.934 16.2236C26.8617 16.32 26.7774 16.3983 26.6811 16.4585C26.5847 16.5187 26.4763 16.5609 26.3559 16.585C26.2595 16.609 26.1571 16.609 26.0487 16.585C25.9403 16.5609 25.838 16.5127 25.7416 16.4404C25.6452 16.3682 25.567 16.2899 25.5067 16.2056C25.4465 16.1213 25.4044 16.0189 25.3803 15.8984C25.3562 15.8021 25.3562 15.6997 25.3803 15.5913C25.4044 15.4829 25.4525 15.3805 25.5248 15.2842C25.5489 15.236 25.9162 14.8687 26.6269 14.1821C27.3375 13.4956 28.295 13.2969 29.4994 13.5859C30.5352 13.8268 31.3422 14.3869 31.9203 15.2661C32.4984 16.1453 32.6791 17.0667 32.4623 18.0303C32.2696 18.8975 31.836 19.6021 31.1615 20.144C30.487 20.686 29.668 20.9932 28.7045 21.0654C27.8614 21.1136 27.2712 21.2401 26.934 21.4448C26.5967 21.6496 26.3438 21.8724 26.1752 22.1133C26.1511 22.1615 26.109 22.2036 26.0487 22.2397C25.9885 22.2759 25.9343 22.318 25.8861 22.3662C25.8139 22.3903 25.7476 22.4084 25.6874 22.4204C25.6272 22.4325 25.5609 22.4385 25.4887 22.4385ZM23.6098 25.4375C23.9711 25.4375 24.2782 25.311 24.5312 25.0581C24.7841 24.8052 24.9105 24.498 24.9105 24.1367C24.9105 23.7754 24.7841 23.4622 24.5312 23.1973C24.2782 22.9323 23.9711 22.7998 23.6098 22.7998C23.2484 22.7998 22.9413 22.9323 22.6884 23.1973C22.4354 23.4622 22.309 23.7754 22.309 24.1367C22.309 24.498 22.4354 24.8052 22.6884 25.0581C22.9413 25.311 23.2484 25.4375 23.6098 25.4375Z" fill="white"/>
</svg>
