<svg width="38" height="37" viewBox="0 0 38 37" fill="none" xmlns="http://www.w3.org/2000/svg">
<path d="M33.4893 37H4.51074C4.51074 37 4.50472 37 4.49268 37C4.48063 37 4.47461 37 4.47461 37C4.0651 37 3.67969 36.9036 3.31836 36.7109C2.95703 36.5182 2.65592 36.2653 2.41504 35.9521C2.24642 35.7354 2.11995 35.5005 2.03564 35.2476C1.95133 34.9946 1.90918 34.7236 1.90918 34.4346C1.90918 34.3141 1.92122 34.1877 1.94531 34.0552C1.9694 33.9227 2.00553 33.7842 2.05371 33.6396V33.6758C2.63184 31.8691 3.47493 30.207 4.58301 28.6895C5.69108 27.1719 6.97982 25.8651 8.44922 24.769C9.91862 23.673 11.5566 22.8239 13.3633 22.2217C15.1458 21.6195 17.0247 21.3184 19 21.3184C20.9753 21.3184 22.8542 21.6195 24.6367 22.2217C26.4434 22.8239 28.0814 23.667 29.5508 24.751C31.0202 25.835 32.3089 27.1237 33.417 28.6172C34.501 30.1348 35.332 31.7728 35.9102 33.5312L35.9463 33.6758C35.9945 33.7962 36.0306 33.9227 36.0547 34.0552C36.0788 34.1877 36.0908 34.3141 36.0908 34.4346C36.0908 34.7236 36.0487 34.9946 35.9644 35.2476C35.88 35.5005 35.7536 35.7354 35.585 35.9521C35.3441 36.2653 35.043 36.5182 34.6816 36.7109C34.3203 36.9036 33.9349 37 33.5254 37C33.5254 37 33.5194 37 33.5073 37C33.4953 37 33.4893 37 33.4893 37ZM19 23.8115C19 23.8115 18.994 23.8115 18.9819 23.8115C18.9699 23.8115 18.9639 23.8115 18.9639 23.8115C17.2536 23.8115 15.6396 24.0765 14.1221 24.6064C12.5804 25.1123 11.1772 25.835 9.9126 26.7744C8.64795 27.7139 7.5459 28.8219 6.60645 30.0986C5.66699 31.3994 4.95638 32.8086 4.47461 34.3262L4.43848 34.4346C4.43848 34.4346 4.43848 34.4466 4.43848 34.4707C4.43848 34.4948 4.46257 34.5068 4.51074 34.5068H33.4893C33.4893 34.5068 33.4953 34.5068 33.5073 34.5068C33.5194 34.5068 33.5254 34.5068 33.5254 34.5068C33.5254 34.5068 33.5314 34.5008 33.5435 34.4888C33.5555 34.4767 33.5736 34.4587 33.5977 34.4346C33.0918 32.8929 32.3571 31.4717 31.3936 30.1709C30.4541 28.8701 29.3521 27.744 28.0874 26.7925C26.8228 25.841 25.4196 25.1123 23.8779 24.6064C22.3363 24.0765 20.7223 23.8115 19.0361 23.8115C19.0361 23.8115 19.0301 23.8115 19.0181 23.8115C19.006 23.8115 19 23.8115 19 23.8115ZM19.0361 18.5C17.8317 18.5 16.7116 18.1868 15.6758 17.5605C14.6159 16.9342 13.7065 16.1152 12.9478 15.1035C12.189 14.0918 11.5928 12.9596 11.1592 11.707C10.7497 10.4303 10.5449 9.16569 10.5449 7.91309C10.5449 7.889 10.5389 7.85287 10.5269 7.80469C10.5148 7.75651 10.5088 7.70833 10.5088 7.66016C10.5088 6.64844 10.6895 5.69694 11.0508 4.80566C11.4121 3.91439 11.918 3.11946 12.5684 2.4209H12.5322C13.279 1.62598 14.2064 1.02376 15.3145 0.614258C16.4225 0.204754 17.6631 0 19.0361 0C19.1084 0 19.1867 0 19.271 0C19.3553 0 19.4336 0 19.5059 0C20.6862 0 21.7822 0.216797 22.7939 0.650391C23.8057 1.08398 24.6969 1.6862 25.4678 2.45703C26.0941 3.1556 26.5819 3.95654 26.9312 4.85986C27.2804 5.76318 27.4551 6.7207 27.4551 7.73242C27.4551 7.7806 27.4551 7.82878 27.4551 7.87695C27.4551 7.92513 27.4551 7.97331 27.4551 8.02148V7.98535C27.4551 9.23796 27.2383 10.4906 26.8047 11.7432C26.3952 12.9958 25.811 14.1219 25.0522 15.1216C24.2935 16.1213 23.4082 16.9342 22.3965 17.5605C21.3607 18.1868 20.2406 18.5 19.0361 18.5ZM19.0361 2.5293C18.0003 2.5293 17.091 2.66179 16.3081 2.92676C15.5252 3.19173 14.8809 3.60124 14.375 4.15527C13.9414 4.61296 13.6102 5.14893 13.3813 5.76318C13.1525 6.37744 13.0381 7.02181 13.0381 7.69629C13.0381 7.74447 13.0381 7.78662 13.0381 7.82275C13.0381 7.85889 13.0381 7.90104 13.0381 7.94922V7.91309C13.0381 8.82845 13.1947 9.7679 13.5078 10.7314C13.821 11.695 14.2485 12.5682 14.7905 13.3511C15.3325 14.134 15.9769 14.7663 16.7236 15.248C17.4463 15.7539 18.2171 16.0068 19.0361 16.0068C19.8792 16.0068 20.6621 15.766 21.3848 15.2842C22.0833 14.8024 22.6976 14.1761 23.2275 13.4053C23.7575 12.6344 24.167 11.7673 24.4561 10.8037C24.7451 9.86426 24.8896 8.9248 24.8896 7.98535C24.8896 7.96126 24.8896 7.93115 24.8896 7.89502C24.8896 7.85889 24.8896 7.81673 24.8896 7.76855C24.8896 7.06999 24.7752 6.41357 24.5464 5.79932C24.3175 5.18506 23.9984 4.63704 23.5889 4.15527C23.0589 3.64941 22.4386 3.25195 21.728 2.96289C21.0174 2.67383 20.2646 2.5293 19.4697 2.5293C19.3975 2.5293 19.3252 2.5293 19.2529 2.5293C19.1807 2.5293 19.1084 2.5293 19.0361 2.5293Z" fill="white"/>
</svg>
