<svg width="37" height="37" viewBox="0 0 37 37" fill="none" xmlns="http://www.w3.org/2000/svg">
<path d="M24.9316 0C23.7754 0 22.6914 0.216797 21.6797 0.650391C20.668 1.10807 19.7827 1.71631 19.0239 2.4751C18.2651 3.23389 17.6689 4.11914 17.2354 5.13086C16.8018 6.14258 16.585 7.22656 16.585 8.38281V17.7773H7.55176L12.4297 12.9355C12.526 12.8151 12.6043 12.6886 12.6646 12.5562C12.7248 12.4237 12.7549 12.2731 12.7549 12.1045C12.7549 11.7913 12.6465 11.5264 12.4297 11.3096C12.2129 11.0928 11.9479 10.9844 11.6348 10.9844C11.4661 10.9844 11.3156 11.0145 11.1831 11.0747C11.0506 11.1349 10.9242 11.2132 10.8037 11.3096L4.01074 18.1387C3.8903 18.235 3.80599 18.3494 3.75781 18.4819C3.70964 18.6144 3.68555 18.765 3.68555 18.9336C3.68555 19.0781 3.70964 19.2227 3.75781 19.3672C3.80599 19.5117 3.8903 19.6322 4.01074 19.7285L10.8037 26.5576C10.9001 26.6299 11.0145 26.6961 11.147 26.7563C11.2795 26.8166 11.43 26.8467 11.5986 26.8467C11.9118 26.8467 12.1768 26.7323 12.3936 26.5034C12.6104 26.2746 12.7188 26.0036 12.7188 25.6904C12.7188 25.5459 12.6947 25.4074 12.6465 25.2749C12.5983 25.1424 12.526 25.028 12.4297 24.9316L7.55176 20.0537H16.585V28.3643C16.585 28.4124 16.585 28.4546 16.585 28.4907C16.585 28.5269 16.585 28.569 16.585 28.6172C16.585 29.7734 16.8018 30.8574 17.2354 31.8691C17.6689 32.9049 18.2651 33.8022 19.0239 34.561C19.7827 35.3198 20.668 35.916 21.6797 36.3496C22.6914 36.7832 23.7874 37 24.9678 37C26.124 37 27.208 36.7832 28.2197 36.3496C29.2314 35.916 30.1167 35.3198 30.8755 34.561C31.6343 33.8022 32.2305 32.9049 32.6641 31.8691C33.0977 30.8574 33.3145 29.7734 33.3145 28.6172C33.3145 28.569 33.3145 28.5269 33.3145 28.4907C33.3145 28.4546 33.3145 28.4124 33.3145 28.3643V8.34668C33.3145 7.19043 33.0977 6.10645 32.6641 5.09473C32.2305 4.08301 31.6343 3.19775 30.8755 2.43896C30.1167 1.68018 29.2314 1.08398 28.2197 0.650391C27.1839 0.216797 26.0879 0 24.9316 0ZM31.1826 28.4004C31.1826 30.1107 30.5744 31.5801 29.3579 32.8086C28.1414 34.0371 26.666 34.6514 24.9316 34.6514C23.2214 34.6514 21.752 34.0371 20.5234 32.8086C19.2949 31.5801 18.6807 30.1107 18.6807 28.4004V20.0537H28.0391C28.3522 20.0537 28.6232 19.9393 28.8521 19.7104C29.0809 19.4816 29.1953 19.2106 29.1953 18.8975C29.1953 18.5843 29.0809 18.3193 28.8521 18.1025C28.6232 17.8857 28.3522 17.7773 28.0391 17.7773H18.7168V8.34668C18.7168 6.63639 19.325 5.17301 20.5415 3.95654C21.758 2.74007 23.2334 2.13184 24.9678 2.13184C26.6781 2.13184 28.1414 2.74007 29.3579 3.95654C30.5744 5.17301 31.1826 6.63639 31.1826 8.34668V28.4004Z" fill="white"/>
</svg>
