<svg width="33" height="37" viewBox="0 0 33 37" fill="none" xmlns="http://www.w3.org/2000/svg">
<path d="M30.6729 23.0527L27.2402 20.0176L23.6992 22.7998C23.6029 22.8721 23.5306 22.9624 23.4824 23.0708C23.4342 23.1792 23.4102 23.2936 23.4102 23.4141C23.4102 23.4863 23.4222 23.5646 23.4463 23.6489C23.4704 23.7332 23.5186 23.8115 23.5908 23.8838C23.639 23.9561 23.7173 24.0163 23.8257 24.0645C23.9341 24.1126 24.0485 24.1367 24.1689 24.1367C24.2412 24.1367 24.3195 24.1247 24.4038 24.1006C24.4881 24.0765 24.5664 24.0404 24.6387 23.9922L26.0479 22.8721C26.0479 22.9925 26.0539 23.131 26.0659 23.2876C26.078 23.4442 26.084 23.5947 26.084 23.7393C26.084 25.2809 25.7949 26.7262 25.2168 28.0752C24.6387 29.4242 23.8438 30.5985 22.832 31.5981C21.8203 32.5978 20.64 33.3867 19.291 33.9648C17.9661 34.543 16.5329 34.832 14.9912 34.832C13.4495 34.832 12.0163 34.543 10.6914 33.9648C9.34245 33.3867 8.16211 32.5978 7.15039 31.5981C6.13867 30.5985 5.34375 29.4242 4.76562 28.0752C4.1875 26.7262 3.89844 25.2809 3.89844 23.7393C3.89844 22.0531 4.24772 20.4813 4.94629 19.0239C5.64486 17.5666 6.58431 16.332 7.76465 15.3203V23.9922C7.81283 24.9798 8.02962 25.8952 8.41504 26.7383C8.80046 27.6055 9.31836 28.3582 9.96875 28.9966C10.6191 29.6349 11.3779 30.1348 12.2451 30.4961C13.1123 30.8574 14.0397 31.0381 15.0273 31.0381C16.015 31.0381 16.9424 30.8574 17.8096 30.4961C18.6768 30.1348 19.4355 29.6349 20.0859 28.9966C20.7363 28.3582 21.2663 27.6175 21.6758 26.7744C22.0612 25.9072 22.266 24.9798 22.29 23.9922V7.0459C22.266 6.05827 22.0612 5.1429 21.6758 4.2998C21.2663 3.43262 20.7363 2.67985 20.0859 2.0415C19.4355 1.40316 18.6768 0.90332 17.8096 0.541992C16.9424 0.180664 16.015 0 15.0273 0C14.0397 0 13.1123 0.180664 12.2451 0.541992C11.3779 0.90332 10.6191 1.40316 9.96875 2.0415C9.31836 2.67985 8.80046 3.43262 8.41504 4.2998C8.02962 5.1429 7.82487 6.05827 7.80078 7.0459H7.76465V12.6465C7.52376 12.8151 7.2889 12.9837 7.06006 13.1523C6.83122 13.321 6.62044 13.5016 6.42773 13.6943C5.70508 14.2965 5.05469 14.971 4.47656 15.7178C3.89844 16.4645 3.41064 17.2655 3.01318 18.1206C2.61572 18.9757 2.30859 19.8851 2.0918 20.8486C1.875 21.7881 1.7666 22.7637 1.7666 23.7754C1.7666 25.6061 2.11589 27.3164 2.81445 28.9062C3.48893 30.5202 4.42839 31.9233 5.63281 33.1157C6.83724 34.3081 8.23438 35.2536 9.82422 35.9521C11.4382 36.6507 13.1605 37 14.9912 37C16.8219 37 18.5322 36.6507 20.1221 35.9521C21.736 35.2536 23.1392 34.3081 24.3315 33.1157C25.5239 31.9233 26.4694 30.5202 27.168 28.9062C27.8665 27.3164 28.2158 25.6061 28.2158 23.7754C28.2158 23.6068 28.2158 23.4442 28.2158 23.2876C28.2158 23.131 28.2038 22.9684 28.1797 22.7998V22.8721L29.6611 24.1729C29.7093 24.221 29.7756 24.2632 29.8599 24.2993C29.9442 24.3354 30.0345 24.3535 30.1309 24.3535C30.3236 24.3535 30.4922 24.2752 30.6367 24.1187C30.7812 23.9621 30.8535 23.7874 30.8535 23.5947C30.8535 23.4984 30.8354 23.402 30.7993 23.3057C30.7632 23.2093 30.709 23.125 30.6367 23.0527H30.6729ZM9.93262 7.0459C9.98079 5.67285 10.4987 4.50456 11.4863 3.54102C12.474 2.57747 13.6543 2.0957 15.0273 2.0957C16.4245 2.0957 17.6169 2.57747 18.6045 3.54102C19.5921 4.50456 20.11 5.67285 20.1582 7.0459V11.5986C19.3874 11.2614 18.5684 11.0024 17.7012 10.8218C16.834 10.6411 15.9307 10.5508 14.9912 10.5508C14.0758 10.5508 13.1846 10.6411 12.3174 10.8218C11.4502 11.0024 10.6191 11.2493 9.82422 11.5625L9.93262 11.5264V7.0459ZM9.93262 13.9111C10.6553 13.5257 11.4502 13.2246 12.3174 13.0078C13.1846 12.791 14.0758 12.6826 14.9912 12.6826C15.9307 12.6826 16.84 12.797 17.7192 13.0259C18.5985 13.2547 19.4355 13.5739 20.2305 13.9834L20.1582 13.9473V23.9922C20.11 25.3652 19.5921 26.5335 18.6045 27.4971C17.6169 28.4606 16.4245 28.9424 15.0273 28.9424C13.6543 28.9424 12.474 28.4606 11.4863 27.4971C10.4987 26.5335 9.98079 25.3652 9.93262 23.9922V13.9111ZM27.2402 17.8857C28.0111 17.4281 28.6313 16.9222 29.1011 16.3682C29.5708 15.8141 29.8177 15.248 29.8418 14.6699C29.8659 14.0918 29.7635 13.6943 29.5347 13.4775C29.3058 13.2607 29.0589 13.1162 28.7939 13.0439C28.7458 13.0439 28.6976 13.0379 28.6494 13.0259C28.6012 13.0138 28.541 13.0078 28.4688 13.0078C28.2038 13.0078 27.9629 13.0741 27.7461 13.2065C27.5293 13.339 27.3607 13.5137 27.2402 13.7305C27.0957 13.5137 26.915 13.3451 26.6982 13.2246C26.4814 13.1042 26.2285 13.0439 25.9395 13.0439C25.8913 13.0439 25.8431 13.0439 25.7949 13.0439C25.7467 13.0439 25.6986 13.0439 25.6504 13.0439C25.3613 13.1403 25.1144 13.3149 24.9097 13.5679C24.7049 13.8208 24.6025 14.1038 24.6025 14.417C24.6025 14.4652 24.6025 14.5133 24.6025 14.5615C24.6025 14.6097 24.6146 14.6579 24.6387 14.7061V14.6699C24.6387 15.248 24.8735 15.8141 25.3433 16.3682C25.813 16.9222 26.4453 17.4281 27.2402 17.8857Z" fill="white"/>
</svg>
