<svg width="38" height="37" viewBox="0 0 38 37" fill="none" xmlns="http://www.w3.org/2000/svg">
<path d="M36.0908 21.2822H5.52246C5.20931 21.2822 4.9082 21.228 4.61914 21.1196C4.33008 21.0112 4.07715 20.8366 3.86035 20.5957C3.64355 20.3789 3.47493 20.126 3.35449 19.8369C3.23405 19.5479 3.17383 19.2467 3.17383 18.9336V17.3076H4.9082V18.9336C4.9082 19.0299 4.92025 19.1143 4.94434 19.1865C4.96842 19.2588 5.0166 19.319 5.08887 19.3672C5.13704 19.4395 5.19727 19.4876 5.26953 19.5117C5.3418 19.5358 5.42611 19.5479 5.52246 19.5479H36.0908V21.2822ZM28.5029 19.9092H26.7686V6.79297C26.7686 6.67253 26.7445 6.56413 26.6963 6.46777C26.6481 6.37142 26.5879 6.28711 26.5156 6.21484C26.4434 6.11849 26.353 6.05225 26.2446 6.01611C26.1362 5.97998 26.0339 5.96191 25.9375 5.96191H5.73926C5.61881 5.96191 5.51042 5.97998 5.41406 6.01611C5.31771 6.05225 5.2334 6.11849 5.16113 6.21484C5.06478 6.28711 4.99854 6.37142 4.9624 6.46777C4.92627 6.56413 4.9082 6.67253 4.9082 6.79297V17.3076H3.17383V6.79297C3.17383 6.45573 3.24007 6.13053 3.37256 5.81738C3.50505 5.50423 3.69173 5.22721 3.93262 4.98633C4.1735 4.74544 4.45052 4.55876 4.76367 4.42627C5.07682 4.29378 5.40202 4.22754 5.73926 4.22754H25.9375C26.2747 4.22754 26.5999 4.29378 26.9131 4.42627C27.2262 4.55876 27.5033 4.74544 27.7441 4.98633C27.985 5.22721 28.1717 5.50423 28.3042 5.81738C28.4367 6.13053 28.5029 6.45573 28.5029 6.79297V19.9092ZM9.49707 29.5205H4.25781C4.13737 29.5205 4.02295 29.4964 3.91455 29.4482C3.80615 29.4001 3.71582 29.3398 3.64355 29.2676C3.5472 29.1712 3.47493 29.0688 3.42676 28.9604C3.37858 28.8521 3.35449 28.7497 3.35449 28.6533C3.35449 28.5329 3.37858 28.4185 3.42676 28.3101C3.47493 28.2017 3.5472 28.1113 3.64355 28.0391C3.71582 27.9427 3.80615 27.8704 3.91455 27.8223C4.02295 27.7741 4.13737 27.75 4.25781 27.75H9.49707C9.61751 27.75 9.72591 27.7741 9.82227 27.8223C9.91862 27.8704 10.015 27.9427 10.1113 28.0391C10.1836 28.1113 10.2438 28.2017 10.292 28.3101C10.3402 28.4185 10.3643 28.5329 10.3643 28.6533C10.3643 28.7497 10.3402 28.8521 10.292 28.9604C10.2438 29.0688 10.1836 29.1712 10.1113 29.2676C10.015 29.3398 9.91862 29.4001 9.82227 29.4482C9.72591 29.4964 9.61751 29.5205 9.49707 29.5205ZM7.58203 26.7383H1.62012C1.49967 26.7383 1.38525 26.7202 1.27686 26.6841C1.16846 26.6479 1.07812 26.5817 1.00586 26.4854C0.933594 26.4131 0.873372 26.3228 0.825195 26.2144C0.777018 26.106 0.75293 25.9915 0.75293 25.8711C0.75293 25.7747 0.777018 25.6724 0.825195 25.564C0.873372 25.4556 0.933594 25.3532 1.00586 25.2568C1.07812 25.1846 1.16846 25.1243 1.27686 25.0762C1.38525 25.028 1.49967 25.0039 1.62012 25.0039H7.58203C7.70247 25.0039 7.81689 25.028 7.92529 25.0762C8.03369 25.1243 8.12402 25.1846 8.19629 25.2568C8.29264 25.3532 8.35889 25.4556 8.39502 25.564C8.43115 25.6724 8.44922 25.7747 8.44922 25.8711C8.44922 25.9915 8.43115 26.106 8.39502 26.2144C8.35889 26.3228 8.29264 26.4131 8.19629 26.4854C8.12402 26.5817 8.03369 26.6479 7.92529 26.6841C7.81689 26.7202 7.70247 26.7383 7.58203 26.7383ZM9.02734 23.9922H3.0293C2.93294 23.9922 2.83057 23.9681 2.72217 23.9199C2.61377 23.8717 2.51139 23.8115 2.41504 23.7393C2.34277 23.667 2.28255 23.5767 2.23438 23.4683C2.1862 23.3599 2.16211 23.2454 2.16211 23.125C2.16211 23.0046 2.1862 22.8901 2.23438 22.7817C2.28255 22.6733 2.34277 22.583 2.41504 22.5107C2.51139 22.4385 2.61377 22.3783 2.72217 22.3301C2.83057 22.2819 2.93294 22.2578 3.0293 22.2578H9.02734C9.1237 22.2578 9.22607 22.2819 9.33447 22.3301C9.44287 22.3783 9.54525 22.4385 9.6416 22.5107C9.71387 22.583 9.77409 22.6733 9.82227 22.7817C9.87044 22.8901 9.89453 23.0046 9.89453 23.125C9.89453 23.2454 9.87044 23.3599 9.82227 23.4683C9.77409 23.5767 9.71387 23.667 9.6416 23.7393C9.54525 23.8115 9.44287 23.8717 9.33447 23.9199C9.22607 23.9681 9.1237 23.9922 9.02734 23.9922ZM25.9375 27.75H16.3623V29.5205H25.9375V27.75ZM34.6816 29.5205H32.1885V27.75H34.6816C34.8021 27.75 34.9105 27.7319 35.0068 27.6958C35.1032 27.6597 35.1875 27.6055 35.2598 27.5332C35.332 27.4609 35.3923 27.3706 35.4404 27.2622C35.4886 27.1538 35.5127 27.0514 35.5127 26.9551V16.043C35.5127 15.9948 35.5067 15.9406 35.4946 15.8804C35.4826 15.8202 35.4645 15.766 35.4404 15.7178C35.4163 15.6696 35.3862 15.6214 35.3501 15.5732C35.314 15.5251 35.2718 15.4769 35.2236 15.4287L31.2129 11.7793C31.1165 11.707 31.0202 11.6528 30.9238 11.6167C30.8275 11.5806 30.7311 11.5625 30.6348 11.5625H26.7686V9.82812H30.6348C30.9479 9.82812 31.255 9.88232 31.5562 9.99072C31.8573 10.0991 32.1283 10.2617 32.3691 10.4785L36.3799 14.1641C36.5244 14.2845 36.6509 14.417 36.7593 14.5615C36.8677 14.7061 36.958 14.8626 37.0303 15.0312C37.1025 15.1758 37.1567 15.3384 37.1929 15.519C37.229 15.6997 37.2471 15.8743 37.2471 16.043V26.9189C37.2471 27.2803 37.1808 27.6175 37.0483 27.9307C36.9159 28.2438 36.7292 28.5208 36.4883 28.7617C36.2474 29.0026 35.9704 29.1893 35.6572 29.3218C35.3441 29.4543 35.0189 29.5205 34.6816 29.5205ZM13.3994 32.7725C12.9899 32.7725 12.5924 32.7122 12.207 32.5918C11.8216 32.4714 11.4603 32.3027 11.123 32.0859C10.7617 31.8691 10.4546 31.5981 10.2017 31.2729C9.94873 30.9478 9.73796 30.6045 9.56934 30.2432C9.4248 29.8577 9.33447 29.4603 9.29834 29.0508C9.26221 28.6413 9.28027 28.2318 9.35254 27.8223C9.4248 27.4368 9.55729 27.0635 9.75 26.7021C9.94271 26.3408 10.1836 26.0156 10.4727 25.7266C10.7617 25.4375 11.0869 25.1966 11.4482 25.0039C11.8096 24.8112 12.195 24.6787 12.6045 24.6064C12.9899 24.5101 13.3874 24.486 13.7969 24.5342C14.2064 24.5824 14.6038 24.6787 14.9893 24.8232C15.3747 24.9919 15.724 25.2026 16.0371 25.4556C16.3503 25.7085 16.6152 26.0036 16.832 26.3408C17.0729 26.6781 17.2536 27.0454 17.374 27.4429C17.4945 27.8403 17.5547 28.2438 17.5547 28.6533C17.5547 29.2074 17.4463 29.7373 17.2295 30.2432C17.0127 30.749 16.7116 31.1947 16.3262 31.5801C15.9408 31.9655 15.4951 32.2606 14.9893 32.4653C14.4834 32.6701 13.9535 32.7725 13.3994 32.7725ZM13.3994 26.2686C13.1585 26.2686 12.9237 26.2987 12.6948 26.3589C12.466 26.4191 12.2552 26.5215 12.0625 26.666C11.8698 26.7865 11.7012 26.937 11.5566 27.1177C11.4121 27.2983 11.2917 27.4971 11.1953 27.7139C11.099 27.9307 11.0387 28.1595 11.0146 28.4004C10.9906 28.6413 11.0026 28.8822 11.0508 29.123C11.099 29.3398 11.1772 29.5566 11.2856 29.7734C11.394 29.9902 11.5326 30.1829 11.7012 30.3516C11.8698 30.5202 12.0625 30.6587 12.2793 30.7671C12.4961 30.8755 12.7129 30.9538 12.9297 31.002C13.1706 31.0501 13.4054 31.0622 13.6343 31.0381C13.8631 31.014 14.0859 30.9538 14.3027 30.8574C14.5436 30.7611 14.7544 30.6406 14.9351 30.4961C15.1157 30.3516 15.2663 30.1829 15.3867 29.9902C15.5312 29.7734 15.6336 29.5566 15.6938 29.3398C15.7541 29.123 15.7842 28.8942 15.7842 28.6533C15.7842 28.3402 15.724 28.033 15.6035 27.7319C15.4831 27.4308 15.3145 27.1719 15.0977 26.9551C14.8809 26.7383 14.6219 26.5697 14.3208 26.4492C14.0197 26.3288 13.7126 26.2686 13.3994 26.2686ZM29.2617 32.7725C28.8522 32.7725 28.4548 32.7122 28.0693 32.5918C27.6839 32.4714 27.3226 32.3027 26.9854 32.0859C26.624 31.8691 26.3169 31.5981 26.064 31.2729C25.811 30.9478 25.6003 30.6045 25.4316 30.2432C25.2871 29.8577 25.1968 29.4603 25.1606 29.0508C25.1245 28.6413 25.1426 28.2318 25.2148 27.8223C25.2871 27.4368 25.4196 27.0635 25.6123 26.7021C25.805 26.3408 26.0459 26.0156 26.335 25.7266C26.624 25.4375 26.9492 25.1966 27.3105 25.0039C27.6719 24.8112 28.0573 24.6787 28.4668 24.6064C28.8522 24.5101 29.2497 24.486 29.6592 24.5342C30.0687 24.5824 30.4661 24.6787 30.8516 24.8232C31.237 24.9919 31.5863 25.2026 31.8994 25.4556C32.2126 25.7085 32.4775 26.0036 32.6943 26.3408C32.9352 26.6781 33.1159 27.0454 33.2363 27.4429C33.3568 27.8403 33.417 28.2438 33.417 28.6533C33.417 29.2074 33.3086 29.7373 33.0918 30.2432C32.875 30.749 32.5739 31.1947 32.1885 31.5801C31.8031 31.9655 31.3574 32.2606 30.8516 32.4653C30.3457 32.6701 29.8158 32.7725 29.2617 32.7725ZM29.2617 26.2686C29.0208 26.2686 28.786 26.2987 28.5571 26.3589C28.3283 26.4191 28.1175 26.5215 27.9248 26.666C27.7321 26.7865 27.5635 26.937 27.4189 27.1177C27.2744 27.2983 27.154 27.4971 27.0576 27.7139C26.9613 27.9307 26.901 28.1595 26.877 28.4004C26.8529 28.6413 26.8649 28.8822 26.9131 29.123C26.9613 29.3398 27.0396 29.5566 27.1479 29.7734C27.2563 29.9902 27.3949 30.1829 27.5635 30.3516C27.7321 30.5202 27.9248 30.6587 28.1416 30.7671C28.3584 30.8755 28.5752 30.9538 28.792 31.002C29.0329 31.0501 29.2677 31.0622 29.4966 31.0381C29.7254 31.014 29.9482 30.9538 30.165 30.8574C30.4059 30.7611 30.6167 30.6406 30.7974 30.4961C30.978 30.3516 31.1286 30.1829 31.249 29.9902C31.3936 29.7734 31.4959 29.5566 31.5562 29.3398C31.6164 29.123 31.6465 28.8942 31.6465 28.6533C31.6465 28.3402 31.5863 28.033 31.4658 27.7319C31.3454 27.4308 31.1768 27.1719 30.96 26.9551C30.7432 26.7383 30.4842 26.5697 30.1831 26.4492C29.882 26.3288 29.5749 26.2686 29.2617 26.2686Z" fill="white"/>
</svg>
