<svg width="38" height="35" viewBox="0 0 38 35" fill="none" xmlns="http://www.w3.org/2000/svg">
<path d="M4.11296 10.0205C3.65527 9.58691 3.20361 9.59896 2.75798 10.0566C2.31234 10.5143 2.31836 10.9479 2.77604 11.3574C3.30599 11.8874 3.84798 12.3993 4.40202 12.8931C4.95605 13.3869 5.51009 13.8867 6.06413 14.3926C6.49772 14.8262 6.94336 14.8141 7.40104 14.3564C7.85872 13.8988 7.85872 13.4652 7.40104 13.0557C6.84701 12.5498 6.29297 12.05 5.73893 11.5562C5.1849 11.0623 4.6429 10.5505 4.11296 10.0205ZM6.49772 18.6562C6.52181 18.5358 6.52783 18.4093 6.51579 18.2769C6.50374 18.1444 6.46159 18.0299 6.38932 17.9336C6.34115 17.8132 6.26286 17.7168 6.15446 17.6445C6.04606 17.5723 5.93164 17.512 5.8112 17.4639C5.13672 17.3675 4.4502 17.2772 3.75163 17.1929C3.05306 17.1086 2.36654 17.0182 1.69206 16.9219C1.57161 16.8978 1.45117 16.8918 1.33073 16.9038C1.21029 16.9159 1.08984 16.958 0.969401 17.0303C0.873047 17.0785 0.782715 17.1507 0.698405 17.2471C0.614095 17.3434 0.559896 17.4518 0.535807 17.5723C0.511719 17.7168 0.505697 17.8493 0.517741 17.9697C0.529785 18.0902 0.559896 18.1986 0.608073 18.2949C0.680339 18.4154 0.764648 18.5117 0.861003 18.584C0.957357 18.6562 1.06576 18.7165 1.1862 18.7646C1.88477 18.861 2.57731 18.9513 3.26383 19.0356C3.95036 19.12 4.6429 19.2103 5.34147 19.3066C5.46191 19.3307 5.58236 19.3368 5.7028 19.3247C5.82324 19.3127 5.93164 19.2705 6.028 19.1982C6.14844 19.126 6.24479 19.0417 6.31706 18.9453C6.38932 18.849 6.44954 18.7526 6.49772 18.6562ZM5.8112 21.7998C5.13672 22.2334 4.45622 22.6549 3.76969 23.0645C3.08317 23.474 2.40267 23.8955 1.72819 24.3291C1.22233 24.6663 1.132 25.112 1.45719 25.666C1.78239 26.2201 2.19792 26.3285 2.70378 25.9912C3.37826 25.5576 4.05876 25.1361 4.74528 24.7266C5.4318 24.3171 6.1123 23.8835 6.78678 23.4258C7.29264 23.1126 7.389 22.679 7.07585 22.125C6.7627 21.571 6.34115 21.4626 5.8112 21.7998ZM33.8864 10.0205C34.3441 9.58691 34.7957 9.59896 35.2414 10.0566C35.687 10.5143 35.681 10.9479 35.2233 11.3574C34.6934 11.8874 34.1514 12.3993 33.5973 12.8931C33.0433 13.3869 32.4893 13.8867 31.9352 14.3926C31.5016 14.8262 31.056 14.8141 30.5983 14.3564C30.1406 13.8988 30.1406 13.4652 30.5983 13.0557C31.1523 12.5498 31.7064 12.05 32.2604 11.5562C32.8145 11.0623 33.3564 10.5505 33.8864 10.0205ZM31.5016 18.6562C31.4775 18.5358 31.4715 18.4093 31.4836 18.2769C31.4956 18.1444 31.5378 18.0299 31.61 17.9336C31.6582 17.8132 31.7365 17.7168 31.8449 17.6445C31.9533 17.5723 32.0677 17.512 32.1882 17.4639C32.8626 17.3675 33.5492 17.2772 34.2477 17.1929C34.9463 17.1086 35.6328 17.0182 36.3073 16.9219C36.4277 16.8978 36.5482 16.8918 36.6686 16.9038C36.7891 16.9159 36.9095 16.958 37.0299 17.0303C37.1263 17.0785 37.2166 17.1507 37.3009 17.2471C37.3853 17.3434 37.4395 17.4518 37.4635 17.5723C37.4876 17.7168 37.4937 17.8493 37.4816 17.9697C37.4696 18.0902 37.4395 18.1986 37.3913 18.2949C37.319 18.4154 37.2347 18.5117 37.1383 18.584C37.042 18.6562 36.9336 18.7165 36.8132 18.7646C36.1146 18.861 35.422 18.9513 34.7355 19.0356C34.049 19.12 33.3564 19.2103 32.6579 19.3066C32.5374 19.3307 32.417 19.3368 32.2966 19.3247C32.1761 19.3127 32.0677 19.2705 31.9714 19.1982C31.8509 19.126 31.7546 19.0417 31.6823 18.9453C31.61 18.849 31.5498 18.7526 31.5016 18.6562ZM32.1882 21.7998C32.8626 22.2334 33.5431 22.6549 34.2297 23.0645C34.9162 23.474 35.5967 23.8955 36.2712 24.3291C36.777 24.6663 36.8674 25.112 36.5422 25.666C36.217 26.2201 35.8014 26.3285 35.2956 25.9912C34.6211 25.5576 33.9406 25.1361 33.2541 24.7266C32.5675 24.3171 31.887 23.8835 31.2126 23.4258C30.7067 23.1126 30.6104 22.679 30.9235 22.125C31.2367 21.571 31.6582 21.4626 32.1882 21.7998ZM18.9997 0.553711C17.988 0.553711 17.0063 0.746418 16.0548 1.13184C15.1034 1.51725 14.2663 2.08333 13.5436 2.83008C12.821 3.55273 12.2669 4.38981 11.8815 5.34131C11.4961 6.29281 11.3034 7.28646 11.3034 8.32227V26.8945C11.3275 27.9062 11.5382 28.8758 11.9357 29.8032C12.3332 30.7306 12.8932 31.5436 13.6159 32.2422C14.3385 32.9648 15.1636 33.5129 16.091 33.8862C17.0184 34.2596 17.988 34.4463 18.9997 34.4463C20.0114 34.4463 20.981 34.2596 21.9084 33.8862C22.8358 33.5129 23.6608 32.9648 24.3835 32.2422C25.1061 31.5436 25.6662 30.7306 26.0636 29.8032C26.4611 28.8758 26.6719 27.9062 26.696 26.8945V8.32227C26.696 7.28646 26.5033 6.29281 26.1178 5.34131C25.7324 4.38981 25.1784 3.55273 24.4557 2.83008C23.7331 2.08333 22.896 1.51725 21.9445 1.13184C20.993 0.746418 20.0114 0.553711 18.9997 0.553711ZM24.7448 26.8945C24.7448 27.6654 24.6003 28.4061 24.3112 29.1167C24.0221 29.8273 23.6006 30.4596 23.0466 31.0137C22.5166 31.5436 21.8963 31.9591 21.1857 32.2603C20.4751 32.5614 19.7464 32.7119 18.9997 32.7119C18.2288 32.7119 17.4941 32.5614 16.7956 32.2603C16.097 31.9591 15.4707 31.5436 14.9167 31.0137C14.3867 30.4596 13.9772 29.8273 13.6882 29.1167C13.3991 28.4061 13.2546 27.6654 13.2546 26.8945V8.32227C13.2546 7.55143 13.3991 6.81071 13.6882 6.1001C13.9772 5.38949 14.3867 4.75716 14.9167 4.20312C15.4707 3.67318 16.097 3.25765 16.7956 2.95654C17.4941 2.65544 18.2288 2.50488 18.9997 2.50488C19.7464 2.50488 20.4751 2.65544 21.1857 2.95654C21.8963 3.25765 22.5166 3.67318 23.0466 4.20312C23.6006 4.75716 24.0221 5.38949 24.3112 6.1001C24.6003 6.81071 24.7448 7.55143 24.7448 8.32227V26.8945ZM17.6628 4.16699C16.9883 4.23926 16.2777 4.74512 15.5309 5.68457C14.7842 6.62402 14.3988 7.76823 14.3747 9.11719V13.2363C14.3747 13.3327 14.3927 13.429 14.4289 13.5254C14.465 13.6217 14.5192 13.7061 14.5915 13.7783C14.6637 13.8506 14.748 13.9108 14.8444 13.959C14.9408 14.0072 15.0371 14.0312 15.1335 14.0312C15.2539 14.0312 15.3563 14.0072 15.4406 13.959C15.5249 13.9108 15.6032 13.8506 15.6755 13.7783C15.7477 13.7061 15.8079 13.6217 15.8561 13.5254C15.9043 13.429 15.9284 13.3327 15.9284 13.2363V9.11719C15.9284 8.17773 16.1693 7.42497 16.651 6.85889C17.1328 6.29281 17.5784 5.90137 17.988 5.68457C18.0361 5.66048 18.0602 5.64844 18.0602 5.64844C18.0602 5.64844 18.0843 5.63639 18.1325 5.6123C18.1807 5.58822 18.2228 5.55811 18.259 5.52197C18.2951 5.48584 18.3372 5.44369 18.3854 5.39551C18.4095 5.37142 18.4336 5.33529 18.4577 5.28711C18.4818 5.23893 18.4938 5.19076 18.4938 5.14258C18.5179 5.0944 18.5299 5.0402 18.5299 4.97998C18.5299 4.91976 18.5299 4.86556 18.5299 4.81738C18.5299 4.76921 18.5239 4.72103 18.5119 4.67285C18.4998 4.62467 18.4818 4.5765 18.4577 4.52832C18.4336 4.50423 18.4035 4.4681 18.3673 4.41992C18.3312 4.37174 18.2891 4.33561 18.2409 4.31152C18.2168 4.28744 18.1807 4.26335 18.1325 4.23926C18.0843 4.21517 18.0361 4.19108 17.988 4.16699C17.9398 4.1429 17.8916 4.13086 17.8434 4.13086C17.7952 4.13086 17.735 4.13086 17.6628 4.13086V4.16699Z" fill="white"/>
</svg>
